<svg id="Calque_1" data-name="Calque 1" xmlns="http://www.w3.org/2000/svg" viewBox="0 0 512 442.54"><defs><style>.cls-1{fill:#417505;}</style></defs><title>bagpack</title><path class="cls-1" d="M484.5,261.21H467.15V240.93a7.5,7.5,0,1,0-15,0V426.07a2.26,2.26,0,0,1-2.26,2.26h-87.8a7.5,7.5,0,0,0,0,15h87.8a17.28,17.28,0,0,0,17.26-17.26v-16H471a27,27,0,0,0,27-27v-68.9a17.28,17.28,0,0,0,14-16.94v-8.51A27.54,27.54,0,0,0,484.5,261.21Zm0,15A12.52,12.52,0,0,1,497,288.72v8.51a2.26,2.26,0,0,1-2.26,2.25H467.15V276.21ZM471,395.09h-3.81V314.48H483v68.59A12,12,0,0,1,471,395.09Z" transform="translate(0 -35)"/><path class="cls-1" d="M327.91,428.33H292.09a34.36,34.36,0,0,0-.19-9.33l-3.4-21.6H415.38a7.5,7.5,0,0,0,7.5-7.5V320.23a17.24,17.24,0,0,0,8.78-15v-8.51a27.54,27.54,0,0,0-27.5-27.51H276.32a27.31,27.31,0,0,0-7.8,1.14l-.74-4.77a82.49,82.49,0,0,0-21.9-44.33V192a17.26,17.26,0,0,0-16-17.19,76.33,76.33,0,0,1,75.08-61.39h70.64A76.68,76.68,0,0,1,452.15,190v16.78a7.5,7.5,0,0,0,15,0V190a91.06,91.06,0,0,0-12.78-46.61,7.55,7.55,0,0,0,.05-.83V59.24A24.27,24.27,0,0,0,430.18,35H396.71a24.27,24.27,0,0,0-24.23,24.24V98.38H359V81.05a18.72,18.72,0,1,0-37.44,0V98.38H308V59.24A24.28,24.28,0,0,0,283.77,35H250.3a24.27,24.27,0,0,0-24.24,24.24v83.29a7.34,7.34,0,0,0,.05.81,91.24,91.24,0,0,0-11.49,31.36H173.39V158.34a27.23,27.23,0,0,0-54.46,0V174.7H63.7A17.28,17.28,0,0,0,46.44,192v29.29c0,.05-.12.1-.17.16a82.58,82.58,0,0,0-21.73,44.16l-3.77,24A7.51,7.51,0,0,0,27,298.12a7.68,7.68,0,0,0,1.17.09,7.5,7.5,0,0,0,7.4-6.33l3.77-24a68,68,0,0,1,7.08-21.28v4.5a71.3,71.3,0,0,0,71.22,71.21h3v8.81a17.74,17.74,0,0,0,17.71,17.71h15.56a17.73,17.73,0,0,0,17.7-17.71v-8.81h3a71.3,71.3,0,0,0,71.22-71.21v-4.49A67.86,67.86,0,0,1,253,267.91l24.12,153.42a19.4,19.4,0,0,1-19.18,22.43h-3V402.28a35,35,0,0,0,7-21V369.88a17.27,17.27,0,0,0-17.25-17.26h-72.5a17.28,17.28,0,0,0-17.26,17.26v11.41a35,35,0,0,0,7,21v41.48H130.45V402.28a35,35,0,0,0,7-21V369.88a17.28,17.28,0,0,0-17.26-17.26H47.66a17.27,17.27,0,0,0-17.25,17.26v11.41a35,35,0,0,0,7,21v41.48h-3a19.4,19.4,0,0,1-19.18-22.43l15.16-96.4a7.5,7.5,0,1,0-14.82-2.33L.42,419a34.41,34.41,0,0,0,34,39.76h3V470a7.5,7.5,0,0,0,7.5,7.5H123a7.5,7.5,0,0,0,7.5-7.5V458.76h31.43V470a7.5,7.5,0,0,0,7.5,7.5h78.07A7.5,7.5,0,0,0,255,470V458.76h2.95a34.39,34.39,0,0,0,26.16-12,37.41,37.41,0,0,0,2.54-3.39h41.31a7.5,7.5,0,0,0,0-15ZM396.71,50h33.47a9.24,9.24,0,0,1,9.24,9.24v65.15a91.31,91.31,0,0,0-51.94-25.23V59.24A9.24,9.24,0,0,1,396.71,50ZM336.52,81.05a3.72,3.72,0,1,1,7.44,0V98.38h-7.44ZM250.3,50h33.47A9.25,9.25,0,0,1,293,59.24V99.17a91.42,91.42,0,0,0-49.63,23c-.79.72-1.56,1.46-2.32,2.2V59.24A9.25,9.25,0,0,1,250.3,50ZM133.93,158.34a12.23,12.23,0,0,1,24.46,0V174.7H133.93Zm22.72,172.81a2.72,2.72,0,0,1-2.71,2.71H138.38a2.71,2.71,0,0,1-2.7-2.71V266.86h21Zm74.23-80a56.27,56.27,0,0,1-56.22,56.21h-3v-48a7.5,7.5,0,0,0-7.5-7.5h-36a7.5,7.5,0,0,0-7.5,7.5v48h-3a56.27,56.27,0,0,1-56.22-56.21V192a2.27,2.27,0,0,1,2.26-2.26H228.62a2.27,2.27,0,0,1,2.26,2.26ZM45.41,369.88a2.26,2.26,0,0,1,2.25-2.26h72.5a2.26,2.26,0,0,1,2.26,2.26v11.41a20.18,20.18,0,0,1-20.16,20.16H65.56a20.18,20.18,0,0,1-20.15-20.16Zm7,92.66V413.87a35,35,0,0,0,13.18,2.58h36.7a35.11,35.11,0,0,0,13.19-2.58v48.67ZM169.9,369.88a2.26,2.26,0,0,1,2.26-2.26h72.5a2.26,2.26,0,0,1,2.25,2.26v11.41a20.18,20.18,0,0,1-20.15,20.16h-36.7a20.19,20.19,0,0,1-20.16-20.16Zm7,92.66V413.87a35,35,0,0,0,13.18,2.58h36.7A35.11,35.11,0,0,0,240,413.87v48.67ZM286.15,382.4l-9.43-59.92H407.88V382.4Zm-9.83-98.2H404.16a12.51,12.51,0,0,1,12.5,12.51v8.51a2.26,2.26,0,0,1-2.25,2.26h-140l-3.47-22A12.44,12.44,0,0,1,276.32,284.2Z" transform="translate(0 -35)"/><path class="cls-1" d="M340.24,228.81a22,22,0,0,0,15.65-6.48l17.95-17.94h0a22.19,22.19,0,0,0,0-31.31l-17.95-17.94a22.14,22.14,0,0,0-31.3,0l-17.94,17.94a22.17,22.17,0,0,0,0,31.31l17.94,17.94A22,22,0,0,0,340.24,228.81Zm-23-45.12,17.95-17.94a7.13,7.13,0,0,1,10.09,0l17.94,17.94a7.15,7.15,0,0,1,0,10.09l-17.94,17.94a7.13,7.13,0,0,1-10.09,0l-17.95-17.94A7.15,7.15,0,0,1,317.25,183.69Z" transform="translate(0 -35)"/><path class="cls-1" d="M306.66,215.77a7.51,7.51,0,0,0-7.5,7.44v.1a7.51,7.51,0,0,0,7.44,7.57h.06a7.5,7.5,0,0,0,7.5-7.43v-.11a7.5,7.5,0,0,0-7.43-7.57Z" transform="translate(0 -35)"/><path class="cls-1" d="M373.75,230.88h.07a7.5,7.5,0,0,0,7.5-7.43v-.11a7.49,7.49,0,0,0-7.43-7.56h-.07a7.5,7.5,0,0,0-7.5,7.43v.1A7.5,7.5,0,0,0,373.75,230.88Z" transform="translate(0 -35)"/></svg>